{
	"asset":{
		"generator":"Khronos glTF Blender I/O v4.0.44",
		"version":"2.0"
	},
	"scene":0,
	"scenes":[
		{
			"name":"Scene",
			"nodes":[
				0,
				1,
				2,
				3
			]
		}
	],
	"nodes":[
		{
			"name":"untitled2.glb",
			"translation":[
				0,
				0.05868076905608177,
				0
			]
		},
		{
			"mesh":0,
			"name":"Icosphere",
			"scale":[
				0.09830848127603531,
				0.09830848127603531,
				0.09830848127603531
			],
			"translation":[
				-0.08628645539283752,
				0.18549402058124542,
				0.21131189167499542
			]
		},
		{
			"mesh":1,
			"name":"Icosphere.001",
			"scale":[
				0.09830848127603531,
				0.09830848127603531,
				0.09830848127603531
			],
			"translation":[
				-0.08628645539283752,
				0.18549402058124542,
				-0.22680534422397614
			]
		},
		{
			"mesh":2,
			"name":"Icosphere.002",
			"scale":[
				0.09830848127603531,
				0.09830848127603531,
				0.09830848127603531
			],
			"translation":[
				-0.08628645539283752,
				0.4798341989517212,
				0.002263486385345459
			]
		}
	],
	"materials":[
		{
			"doubleSided":true,
			"name":"Material",
			"pbrMetallicRoughness":{
				"baseColorFactor":[
					0.800000011920929,
					0.800000011920929,
					0.800000011920929,
					1
				],
				"metallicFactor":0,
				"roughnessFactor":0.5
			}
		}
	],
	"meshes":[
		{
			"name":"Icosphere",
			"primitives":[
				{
					"attributes":{
						"POSITION":0,
						"NORMAL":1,
						"TEXCOORD_0":2
					},
					"indices":3,
					"material":0
				}
			]
		},
		{
			"name":"Icosphere.001",
			"primitives":[
				{
					"attributes":{
						"POSITION":4,
						"NORMAL":5,
						"TEXCOORD_0":6
					},
					"indices":3,
					"material":0
				}
			]
		},
		{
			"name":"Icosphere.002",
			"primitives":[
				{
					"attributes":{
						"POSITION":7,
						"NORMAL":8,
						"TEXCOORD_0":9
					},
					"indices":3,
					"material":0
				}
			]
		}
	],
	"accessors":[
		{
			"bufferView":0,
			"componentType":5126,
			"count":61440,
			"max":[
				0.924250066280365,
				0.9303051233291626,
				0.9248635768890381
			],
			"min":[
				-0.924250066280365,
				-0.9303051233291626,
				-0.9248635768890381
			],
			"type":"VEC3"
		},
		{
			"bufferView":1,
			"componentType":5126,
			"count":61440,
			"type":"VEC3"
		},
		{
			"bufferView":2,
			"componentType":5126,
			"count":61440,
			"type":"VEC2"
		},
		{
			"bufferView":3,
			"componentType":5123,
			"count":92160,
			"type":"SCALAR"
		},
		{
			"bufferView":4,
			"componentType":5126,
			"count":61440,
			"max":[
				0.924250066280365,
				0.9303051233291626,
				0.9248635768890381
			],
			"min":[
				-0.924250066280365,
				-0.9303051233291626,
				-0.9248635768890381
			],
			"type":"VEC3"
		},
		{
			"bufferView":5,
			"componentType":5126,
			"count":61440,
			"type":"VEC3"
		},
		{
			"bufferView":6,
			"componentType":5126,
			"count":61440,
			"type":"VEC2"
		},
		{
			"bufferView":7,
			"componentType":5126,
			"count":61440,
			"max":[
				0.924250066280365,
				0.9303051233291626,
				0.9248635768890381
			],
			"min":[
				-0.924250066280365,
				-0.9303051233291626,
				-0.9248635768890381
			],
			"type":"VEC3"
		},
		{
			"bufferView":8,
			"componentType":5126,
			"count":61440,
			"type":"VEC3"
		},
		{
			"bufferView":9,
			"componentType":5126,
			"count":61440,
			"type":"VEC2"
		}
	],
	"bufferViews":[
		{
			"buffer":0,
			"byteLength":737280,
			"byteOffset":0,
			"target":34962
		},
		{
			"buffer":0,
			"byteLength":737280,
			"byteOffset":737280,
			"target":34962
		},
		{
			"buffer":0,
			"byteLength":491520,
			"byteOffset":1474560,
			"target":34962
		},
		{
			"buffer":0,
			"byteLength":184320,
			"byteOffset":1966080,
			"target":34963
		},
		{
			"buffer":0,
			"byteLength":737280,
			"byteOffset":2150400,
			"target":34962
		},
		{
			"buffer":0,
			"byteLength":737280,
			"byteOffset":2887680,
			"target":34962
		},
		{
			"buffer":0,
			"byteLength":491520,
			"byteOffset":3624960,
			"target":34962
		},
		{
			"buffer":0,
			"byteLength":737280,
			"byteOffset":4116480,
			"target":34962
		},
		{
			"buffer":0,
			"byteLength":737280,
			"byteOffset":4853760,
			"target":34962
		},
		{
			"buffer":0,
			"byteLength":491520,
			"byteOffset":5591040,
			"target":34962
		}
	],
	"buffers":[
		{
			"byteLength":6082560,
			"uri":"03.bin"
		}
	]
}
